<svg id="Layer_1" data-name="Layer 1" xmlns="http://www.w3.org/2000/svg" viewBox="0 0 603.78 104.88"><defs><style>.cls-1{fill:#4988a2;}.cls-2{fill:#7a4198;}.cls-3{fill:#478b60;}.cls-4{fill:#135f66;}.cls-5{fill:#2b7b82;}.cls-6{fill:#194a7f;}.cls-7{fill:#5e2b7c;}.cls-8{fill:#7a2980;}.cls-9{fill:#456630;}.cls-10{fill:#e77a45;}.cls-11{fill:#6f8087;}.cls-12{fill:#404d5c;}</style></defs><title>Artboard 1</title><polygon class="cls-1" points="481.81 16.89 481.81 80.73 561.26 80.73 481.81 16.89"/><polygon class="cls-2" points="538.28 80.73 602.11 7.4 602.11 80.73 538.28 80.73"/><polygon class="cls-3" points="481.94 80.73 513.48 1.06 560.96 80.73 481.94 80.73"/><polygon class="cls-4" points="488.26 80.74 515.3 43.9 547.72 69.89 538.28 80.73 488.26 80.74"/><polygon class="cls-5" points="488.28 80.73 481.86 80.73 501.06 32.37 515.32 43.91 488.28 80.73"/><polygon class="cls-6" points="547.72 69.89 538.28 80.73 561.12 80.73 547.72 69.89"/><polyline class="cls-7" points="551.74 65.26 547.72 69.88 561.12 80.73 551.74 65.26"/><polygon class="cls-8" points="602.11 80.73 561.12 80.73 551.74 65.26 575.63 37.81 602.11 80.73"/><polygon class="cls-9" points="515.32 43.91 528.56 26.36 551.74 65.26 547.72 69.88 515.32 43.91"/><polygon class="cls-10" points="528.56 26.36 535.38 16.89 551.3 39.23 566.9 23.94 575.63 37.81 551.74 65.26 528.56 26.36"/><path class="cls-11" d="M61.69,80.7H49.46L42.54,58.14H19.08L12.47,80.7H.54L24,4H38.23ZM40.64,49.22l-6-20c-1.4-5-2.71-10.43-3.81-15.14h-.2c-1.1,4.71-2.31,10.33-3.61,15L20.89,49.22Z"/><path class="cls-11" d="M82.35,33.88c3.81-6.22,9.82-9.62,17.54-9.62,12.43,0,21.75,11,21.75,28.17,0,20.25-11.73,29.37-23.36,29.37-6.62,0-12-3.11-14.74-7.62h-.2v28.87H71.72V43.3c0-7.22-.2-12.93-.4-17.85H81.54l.6,8.42Zm1,24.56c0,9.92,6.82,14.13,12.53,14.13,9,0,13.94-8.32,13.94-19.75,0-10.53-4.71-19.25-13.63-19.25-6.92,0-12.83,6.52-12.83,14.64Z"/><path class="cls-11" d="M143.7,33.88c3.81-6.22,9.82-9.62,17.54-9.62,12.43,0,21.75,11,21.75,28.17,0,20.25-11.73,29.37-23.36,29.37-6.62,0-12-3.11-14.74-7.62h-.2v28.87H133.08V43.3c0-7.22-.2-12.93-.4-17.85H142.9l.6,8.42Zm1,24.56c0,9.92,6.82,14.13,12.53,14.13,9,0,13.94-8.32,13.94-19.75,0-10.53-4.71-19.25-13.63-19.25-6.92,0-12.83,6.52-12.83,14.64Z"/><path class="cls-12" d="M230.92,15.94a28.34,28.34,0,0,0-13.63-3.41c-9.12,0-12.93,5.31-12.93,10.23,0,6.52,4.31,9.72,14,13.94,12.33,5.41,18.25,12.13,18.25,22.66,0,12.83-9.52,22.46-26.77,22.46-7.22,0-14.84-2.1-18.55-4.61l2.61-9.72A33.5,33.5,0,0,0,210.57,72c9.12,0,14.24-4.71,14.24-11.63,0-6.52-3.91-10.53-13-14.34-11.43-4.61-19.15-11.53-19.15-22,0-12.13,9.72-21.25,25-21.25a35.68,35.68,0,0,1,16.14,3.51Z"/><path class="cls-12" d="M254.28,17.74A6.53,6.53,0,0,1,247.57,11a6.58,6.58,0,0,1,6.82-6.82A6.5,6.5,0,0,1,261.1,11,6.5,6.5,0,0,1,254.28,17.74Zm5.81,63H248.47V25.36H260.1Z"/><path class="cls-12" d="M320.35,25.46c-.3,3.91-.5,8.52-.5,15.94V72.88c0,11-.9,31.38-27.07,31.38-6.42,0-13.13-1.4-17.44-4l2.61-9a30.15,30.15,0,0,0,14.94,3.91c9,0,15.44-5,15.44-17.54V72.28h-.2c-2.81,4.71-8.22,8.12-15.34,8.12-13,0-22-11.53-22-27,0-18.75,11.33-29.17,23.36-29.17,8.22,0,12.83,4.21,15.14,8.62h.2l.5-7.42ZM308.22,46.81c0-7.32-4.81-13.33-11.93-13.33-8,0-13.63,7.62-13.63,19.45,0,10.83,4.91,18.55,13.53,18.55,6,0,12-4.61,12-13.83Z"/><path class="cls-12" d="M379.5,80.7H367.87V48.32c0-7.82-2.61-14.44-10.53-14.44-5.71,0-11.83,4.71-11.83,13.53V80.7H333.89V41c0-6.12-.2-10.83-.4-15.54h10.13l.6,8.22h.3a18.94,18.94,0,0,1,16.74-9.42c8.62,0,18.25,5.61,18.25,22.66Z"/><path class="cls-12" d="M432,67.57a75,75,0,0,0,.8,13.13H422.31l-.8-6.42h-.3a18.7,18.7,0,0,1-15.44,7.52c-10.33,0-16.24-7.62-16.24-16.14,0-13.73,11.93-20.55,30.88-20.55,0-4.11,0-12.33-11.13-12.33a25.44,25.44,0,0,0-13.43,3.81l-2.41-7.72c3.91-2.51,10.43-4.61,17.85-4.61C427.53,24.26,432,35,432,46.71ZM420.71,52.93c-9.12,0-19.65,1.7-19.65,11.53,0,6.12,3.81,8.82,8.12,8.82a11.28,11.28,0,0,0,11.53-11.23Z"/><path class="cls-12" d="M457.76,80.7H446.68V7.43L457.76,1.1Z"/></svg>