<?xml version="1.0" encoding="UTF-8"?>
<svg width="228px" height="40px" viewBox="0 0 228 40" version="1.1" xmlns="http://www.w3.org/2000/svg" xmlns:xlink="http://www.w3.org/1999/xlink">
    <title>futurepool-logo-main-full</title>
    <defs>
        <linearGradient x1="15.7945725%" y1="84.2969374%" x2="112.909461%" y2="-13.0774967%" id="linearGradient-1">
            <stop stop-color="#2D4166" offset="0%"></stop>
            <stop stop-color="#008FFB" offset="50.73%"></stop>
            <stop stop-color="#008FFB" offset="100%"></stop>
        </linearGradient>
        <linearGradient x1="68.7951876%" y1="5.57391883%" x2="28.4974291%" y2="110.45509%" id="linearGradient-2">
            <stop stop-color="#2D4166" offset="0%"></stop>
            <stop stop-color="#008FFB" offset="50.51%"></stop>
            <stop stop-color="#008FFB" offset="100%"></stop>
        </linearGradient>
        <linearGradient x1="0.103195739%" y1="50%" x2="100.103196%" y2="50%" id="linearGradient-3">
            <stop stop-color="#008FFB" offset="0%"></stop>
            <stop stop-color="#6EB3FF" offset="25%"></stop>
            <stop stop-color="#008FFB" offset="50%"></stop>
            <stop stop-color="#008FFB" offset="100%"></stop>
        </linearGradient>
    </defs>
    <g id="Layout-landing" stroke="none" stroke-width="1" fill="none" fill-rule="evenodd">
        <g id="landing" transform="translate(-104.000000, -14.000000)" fill-rule="nonzero">
            <g id="futurepool-main-full" transform="translate(104.000000, 14.000000)">
                <g id="XMLID_69_" transform="translate(141.591363, 8.125000)">
                    <path d="M27.2578968,20.5625 C31.8112755,25.125 39.2339064,25.125 43.8496601,20.5625 C46.0327869,18.375 47.2802879,15.375 47.2802879,12.25 C47.2802879,9.125 46.0327869,6.1875 43.8496601,3.9375 C39.2962815,-0.625 31.8736505,-0.625 27.2578968,3.9375 C26.0727709,5.125 24.95002,6.5 23.8272691,7.9375 L23.8272691,16.5 C24.95002,18 26.0727709,19.375 27.2578968,20.5625 Z M30.8756497,7.625 C33.4330268,5.0625 37.6121551,5.0625 40.1695322,7.625 C41.4170332,8.875 42.1031587,10.5 42.1031587,12.3125 C42.1031587,14.0625 41.4170332,15.75 40.1695322,17 C37.6121551,19.5625 33.4330268,19.5625 30.8756497,17 C29.6281487,15.75 28.3182727,14.0625 27.0083966,12.3125 C28.3182727,10.5625 29.6281487,8.875 30.8756497,7.625 Z" id="XMLID_239_" fill="url(#linearGradient-1)"></path>
                    <path d="M23.8272691,8 C22.7045182,6.5625 21.5817673,5.1875 20.3966413,4 C15.8432627,-0.5625 8.42063175,-0.5625 3.80487805,4 C1.6217513,6.1875 0.3742503,9.1875 0.3742503,12.3125 C0.3742503,15.4375 1.6217513,18.375 3.80487805,20.625 C6.1127549,22.9375 9.1067573,24.0625 12.1007597,24.0625 C15.0947621,24.0625 18.0887645,22.9375 20.3966413,20.625 L20.3966413,20.625 C21.5817673,19.4375 22.7045182,18.0625 23.8272691,16.625 L23.8272691,8 Z M16.7788884,16.9375 C14.2215114,19.5 10.042383,19.5 7.485006,16.9375 C6.237505,15.6875 5.55137945,14.0625 5.55137945,12.25 C5.55137945,10.5 6.237505,8.8125 7.485006,7.5625 C8.79488205,6.25 10.4790084,5.625 12.1631347,5.625 C13.8472611,5.625 15.5313874,6.25 16.8412635,7.5625 C18.0887645,8.8125 19.3986405,10.5 20.7085166,12.25 C19.3362655,14 18.0887645,15.6875 16.7788884,16.9375 Z" id="XMLID_236_" fill="url(#linearGradient-2)"></path>
                    <path d="M37.3626549,19.375 C35.5537785,19.375 33.8696521,18.9375 32.3726509,18.125 L32.3726509,18.125 C31.8112755,17.8125 31.3122751,17.4375 30.8756497,17 C29.6281487,15.75 28.0687725,13.75 27.0083966,12.3125 C26.8212715,12 24.8876449,9.4375 23.8272691,8 C21.4570172,4.9375 20.022391,3.4375 19.1491403,2.9375 C14.5333866,-0.5 7.9840064,-0.1875 3.80487805,4 C1.6217513,6.1875 0.3742503,9.125 0.3742503,12.25 C1.80887645,8.125 5.67612955,5.1875 10.2295082,5.1875 C12.0383846,5.1875 13.722511,5.625 15.2195122,6.4375 L15.2195122,6.4375 C15.7808876,6.75 16.279888,7.125 16.7165134,7.5625 C17.9640144,8.8125 19.5233906,10.8125 20.5837665,12.25 C20.7708916,12.5625 22.7045182,15.125 23.764894,16.5625 C26.1351459,19.625 27.5697721,21.125 28.4430228,21.625 C33.0587765,25.0625 39.6081567,24.75 43.7872851,20.5625 C45.9704118,18.375 47.2179128,15.4375 47.2179128,12.3125 C45.8456617,16.4375 41.9784086,19.375 37.3626549,19.375 Z" id="XMLID_235_" fill="url(#linearGradient-3)"></path>
                </g>
                <g id="XMLID_16_" fill="#001738">
                    <path d="M9.29388245,5.125 C9.7305078,4.625 10.4166333,4.4375 11.4146341,4.4375 C11.8512595,4.4375 12.2255098,4.5 12.537385,4.5625 C12.8492603,4.625 13.1611355,4.6875 13.4106357,4.75 L14.4086365,0.625 C14.0967613,0.5 13.5353858,0.375 12.8492603,0.25 C12.1007597,0.0625 11.289884,0 10.3542583,0 C9.04438225,0 7.8592563,0.25 6.79888045,0.75 C5.7385046,1.25 4.92762895,2 4.30387845,3 C3.68012795,4 3.3682527,5.25 3.3682527,6.8125 L3.3682527,8.9375 L0,8.9375 L0,13.0625 L3.30587765,13.0625 L3.30587765,31.5625 L8.6077569,31.5625 L8.6077569,13.0625 L13.2858856,13.0625 L13.2858856,8.9375 L8.6077569,8.9375 L8.6077569,7.1875 C8.67013195,6.25 8.8572571,5.625 9.29388245,5.125 Z" id="XMLID_184_"></path>
                    <path d="M30.8132747,22 L30.8132747,8.9375 L36.1151539,8.9375 L36.1151539,31.5 L30.9380248,31.5 L30.9380248,27.5 L30.6885246,27.5 C30.1895242,28.75 29.3162735,29.8125 28.1935226,30.625 C27.0083966,31.4375 25.6361455,31.8125 23.8896441,31.8125 C22.3926429,31.8125 21.0827669,31.5 19.960016,30.8125 C18.8372651,30.125 17.9640144,29.1875 17.3402639,27.9375 C16.7165134,26.6875 16.4046381,25.125 16.4046381,23.3125 L16.4046381,8.9375 L21.7065174,8.9375 L21.7065174,22.5 C21.7065174,23.9375 22.0807677,25.0625 22.8916433,25.9375 C23.702519,26.75 24.7005198,27.1875 25.9480208,27.1875 C26.7588964,27.1875 27.507397,27 28.1935226,26.625 C28.9420232,26.25 29.5033986,25.6875 30.002399,24.9375 C30.5637745,24.125 30.8132747,23.1875 30.8132747,22 Z" id="XMLID_146_"></path>
                    <path d="M51.3346661,27.125 C51.209916,27.1875 50.9604158,27.1875 50.7109156,27.25 C50.4614154,27.3125 50.1495402,27.3125 49.7752899,27.3125 C49.3386645,27.3125 48.9644142,27.25 48.5901639,27.125 C48.2159136,27 47.9664134,26.75 47.7169132,26.375 C47.467413,26 47.405038,25.4375 47.405038,24.75 L47.405038,13.0625 L51.8336665,13.0625 L51.8336665,8.9375 L47.405038,8.9375 L47.405038,3.5 L42.1031587,3.5 L42.1031587,8.9375 L38.9220312,8.9375 L38.9220312,13.0625 L42.1031587,13.0625 L42.1031587,25.625 C42.1031587,27.0625 42.415034,28.1875 43.0387845,29.125 C43.662535,30.0625 44.4734106,30.75 45.5961615,31.1875 C46.6565374,31.625 47.8416633,31.8125 49.2139144,31.8125 C49.962415,31.8125 50.5861655,31.75 51.147541,31.625 C51.6465414,31.5 52.0831667,31.375 52.3326669,31.3125 L51.3346661,27.125 Z" id="XMLID_142_"></path>
                    <path d="M69.6105558,22 L69.6105558,8.9375 L74.912435,8.9375 L74.912435,31.5 L69.7353059,31.5 L69.7353059,27.5 L69.4858057,27.5 C68.9868053,28.75 68.1135546,29.8125 66.9908037,30.625 C65.8056777,31.4375 64.4334266,31.8125 62.6869252,31.8125 C61.189924,31.8125 59.880048,31.5 58.7572971,30.8125 C57.6345462,30.125 56.7612955,29.1875 56.137545,27.9375 C55.5137945,26.6875 55.2019192,25.125 55.2019192,23.3125 L55.2019192,8.9375 L60.5037985,8.9375 L60.5037985,22.5 C60.5037985,23.9375 60.8780488,25.0625 61.6889244,25.9375 C62.4998001,26.75 63.4978009,27.1875 64.7453019,27.1875 C65.5561775,27.1875 66.3046781,27 66.9908037,26.625 C67.7393043,26.25 68.3006797,25.6875 68.7996801,24.9375 C69.3610556,24.125 69.6105558,23.1875 69.6105558,22 Z" id="XMLID_151_"></path>
                    <path d="M79.3410636,31.5 L79.3410636,8.9375 L84.5181927,8.9375 L84.5181927,12.6875 L84.7676929,12.6875 C85.2043183,11.375 85.8904438,10.375 86.8884446,9.6875 C87.8864454,9 89.0091963,8.625 90.3190724,8.625 C90.6309476,8.625 90.9428229,8.625 91.3170732,8.6875 C91.6913235,8.6875 92.0031987,8.75 92.2526989,8.8125 L92.2526989,13.6875 C92.0031987,13.625 91.6913235,13.5625 91.1923231,13.5 C90.6933227,13.4375 90.2566973,13.375 89.820072,13.375 C88.8220712,13.375 88.0111955,13.5625 87.2003199,14 C86.3894442,14.4375 85.8280688,15 85.3914434,15.75 C84.9548181,16.5 84.7053179,17.3125 84.7053179,18.3125 L84.7053179,31.5625 L79.3410636,31.5 L79.3410636,31.5 Z" id="XMLID_153_"></path>
                    <path d="M113.772091,20.0625 C113.772091,18.0625 113.522591,16.375 112.961216,14.9375 C112.39984,13.5 111.651339,12.3125 110.715714,11.375 C109.780088,10.4375 108.657337,9.75 107.409836,9.3125 C106.162335,8.875 104.852459,8.625 103.480208,8.625 C101.297081,8.625 99.4258297,9.125 97.8664534,10.125 C96.2447021,11.125 95.0595762,12.5 94.1239504,14.25 C93.2506997,16 92.8140744,18.0625 92.8140744,20.375 C92.8140744,22.75 93.2506997,24.8125 94.1239504,26.5 C94.9972011,28.25 96.2447021,29.5625 97.9288285,30.5 C99.5505798,31.4375 101.546581,31.9375 103.792083,31.9375 C105.538585,31.9375 107.097961,31.6875 108.470212,31.125 C109.842463,30.5625 110.965214,29.8125 111.838465,28.875 C112.711715,27.875 113.335466,26.75 113.647341,25.4375 L108.657337,24.875 C108.407837,25.5 108.095962,26.0625 107.596961,26.5 C107.160336,26.9375 106.59896,27.25 105.97521,27.5 C105.351459,27.75 104.665334,27.8125 103.854458,27.8125 C102.669332,27.8125 101.671331,27.5625 100.860456,27.0625 C99.9872051,26.5625 99.3010796,25.875 98.8644542,24.9375 C98.4278289,24.0625 98.1783287,22.9375 98.1783287,21.6875 L113.896841,21.6875 L113.896841,20.0625 L113.772091,20.0625 Z M98.1159536,18.125 C98.1783287,17.25 98.3654538,16.4375 98.8020792,15.6875 C99.2387045,14.8125 99.9248301,14.125 100.735706,13.625 C101.546581,13.125 102.482207,12.8125 103.604958,12.8125 C104.602959,12.8125 105.538585,13.0625 106.287085,13.5 C107.035586,13.9375 107.659336,14.5625 108.095962,15.375 C108.532587,16.1875 108.719712,17.0625 108.782087,18.125 C108.782087,18.125 98.1159536,18.125 98.1159536,18.125 Z" id="XMLID_150_"></path>
                    <path d="M117.202719,40 L117.202719,8.9375 L122.442223,8.9375 L122.442223,12.6875 L122.754098,12.6875 C123.003599,12.125 123.440224,11.5625 123.939224,10.9375 C124.438225,10.3125 125.12435,9.75 125.935226,9.3125 C126.808477,8.875 127.868852,8.625 129.178729,8.625 C130.92523,8.625 132.484606,9.0625 133.919232,9.9375 C135.291483,10.8125 136.414234,12.125 137.287485,13.875 C138.098361,15.625 138.534986,17.75 138.534986,20.25 C138.534986,22.75 138.098361,24.8125 137.287485,26.5625 C136.476609,28.3125 135.353858,29.625 133.981607,30.5625 C132.609356,31.5 130.987605,31.9375 129.241104,31.9375 C127.931228,31.9375 126.870852,31.75 125.997601,31.3125 C125.12435,30.875 124.438225,30.375 123.939224,29.75 C123.440224,29.125 123.003599,28.5625 122.754098,28 L122.504598,28 L122.504598,40 L117.202719,40 Z M122.442223,20.25 C122.442223,21.6875 122.629348,23 123.065974,24.0625 C123.502599,25.1875 124.063974,26 124.87485,26.625 C125.685726,27.25 126.621351,27.5625 127.744102,27.5625 C128.929228,27.5625 129.927229,27.25 130.67573,26.625 C131.486605,26 132.047981,25.125 132.484606,24 C132.921232,22.875 133.108357,21.625 133.108357,20.25 C133.108357,18.875 132.921232,17.625 132.484606,16.5 C132.110356,15.4375 131.486605,14.5625 130.67573,13.9375 C129.864854,13.3125 128.866853,13 127.681727,13 C126.558976,13 125.560976,13.3125 124.812475,13.875 C124.001599,14.5 123.440224,15.3125 123.003599,16.375 C122.629348,17.5 122.442223,18.75 122.442223,20.25 Z" id="XMLID_157_"></path>
                    <polygon id="XMLID_166_" points="198.602159 1.4375 198.602159 31.5625 193.30028 31.5625 193.30028 1.4375"></polygon>
                </g>
                <g id="XMLID_17_" transform="translate(202.095162, 14.375000)" fill="#001738">
                    <path d="M2.30787685,17.3125 C1.80887645,17.3125 1.3722511,17.125 0.9980008,16.75 C0.6237505,16.375 0.43662535,15.9375 0.43662535,15.4375 C0.43662535,14.9375 0.6237505,14.5 0.9980008,14.125 C1.3722511,13.75 1.80887645,13.5625 2.30787685,13.5625 C2.80687725,13.5625 3.2435026,13.75 3.6177529,14.125 C3.9920032,14.5 4.17912835,14.9375 4.17912835,15.4375 C4.17912835,15.8125 4.1167533,16.125 3.92962815,16.375 C3.742503,16.6875 3.55537785,16.875 3.2435026,17.0625 C2.93162735,17.25 2.6197521,17.3125 2.30787685,17.3125 Z" id="XMLID_160_"></path>
                    <path d="M9.2315074,3.5 C8.732507,3.5 8.29588165,3.3125 7.9840064,3 C7.6097561,2.6875 7.42263095,2.25 7.42263095,1.8125 C7.42263095,1.375 7.6097561,0.9375 7.9840064,0.625 C8.3582567,0.3125 8.732507,0.125 9.2315074,0.125 C9.7305078,0.125 10.1671331,0.3125 10.5413834,0.625 C10.9156337,0.9375 11.0403838,1.375 11.0403838,1.8125 C11.0403838,2.25 10.8532587,2.6875 10.5413834,3 C10.1671331,3.3125 9.7305078,3.5 9.2315074,3.5 Z M7.54738105,17.125 L7.54738105,5.0625 L10.8532587,5.0625 L10.8532587,17.125 L7.54738105,17.125 L7.54738105,17.125 Z" id="XMLID_162_"></path>
                    <path d="M19.6481407,17.375 C18.4006397,17.375 17.4026389,17.125 16.4670132,16.625 C15.5937625,16.125 14.9076369,15.375 14.4086365,14.4375 C13.9096361,13.5 13.6601359,12.4375 13.6601359,11.1875 C13.6601359,9.9375 13.9096361,8.875 14.4086365,7.9375 C14.9076369,7 15.5937625,6.25 16.4670132,5.75 C17.3402639,5.25 18.4006397,5 19.6481407,5 C20.8332667,5 21.8936425,5.25 22.8292683,5.75 C23.702519,6.25 24.3886445,7 24.8876449,7.9375 C25.3866453,8.875 25.6361455,9.9375 25.6361455,11.1875 C25.6361455,12.4375 25.3866453,13.5 24.8876449,14.4375 C24.3886445,15.375 23.702519,16.125 22.8292683,16.625 C21.8936425,17.0625 20.8956417,17.375 19.6481407,17.375 Z M19.6481407,14.75 C20.2095162,14.75 20.6461415,14.5625 21.0203918,14.25 C21.3946421,13.9375 21.6441423,13.5 21.8312675,12.9375 C22.0183926,12.375 22.1431427,11.75 22.1431427,11.0625 C22.1431427,10.375 22.0183926,9.75 21.8312675,9.1875 C21.6441423,8.625 21.3322671,8.1875 21.0203918,7.875 C20.6461415,7.5625 20.2095162,7.375 19.6481407,7.375 C19.0867653,7.375 18.6501399,7.5625 18.2135146,7.875 C17.8392643,8.1875 17.527389,8.625 17.3402639,9.1875 C17.1531387,9.75 17.0283886,10.375 17.0283886,11.0625 C17.0283886,11.75 17.1531387,12.375 17.3402639,12.9375 C17.527389,13.5 17.8392643,13.9375 18.2135146,14.25 C18.6501399,14.625 19.0867653,14.75 19.6481407,14.75 Z" id="XMLID_165_"></path>
                </g>
            </g>
        </g>
    </g>
</svg>