<?xml version="1.0" encoding="utf-8"?>
<!-- Generator: Adobe Illustrator 26.4.1, SVG Export Plug-In . SVG Version: 6.00 Build 0)  -->
<svg version="1.1" id="Layer_1" xmlns="http://www.w3.org/2000/svg" xmlns:xlink="http://www.w3.org/1999/xlink" x="0px" y="0px"
	 viewBox="0 0 600 70" style="enable-background:new 0 0 600 70;" xml:space="preserve">
<style type="text/css">
	.st0{fill:url(#SVGID_1_);}
</style>
<linearGradient id="SVGID_1_" gradientUnits="userSpaceOnUse" x1="-0.1374" y1="35.3222" x2="599.8626" y2="35.3222">
	<stop  offset="0" style="stop-color:#972A86"/>
	<stop  offset="1" style="stop-color:#692888"/>
</linearGradient>
<path class="st0" d="M42.5,29.1C42.5,29.1,42.5,29.1,42.5,29.1C42.5,29.1,42.5,29.1,42.5,29.1C42.5,29.1,42.5,29.1,42.5,29.1z
	 M42.5,29.1C35,21.5,30.1,11,29.5,0C17.5,3.3,8,11.9,2.8,22.4C0.5,27,0,31.6-0.1,34c0,0.4,0,0.8,0,1.3C0,41.8,2.7,47.9,7.5,52.5
	c4.7,4.5,11,6.9,17.5,6.8c4.4-0.1,8.5-1.9,11.6-5.1c3-3.2,4.7-7.4,4.6-11.8c-0.1-2.9-1.3-5.7-3.4-7.7c-2.1-2-4.9-3.1-7.9-3.1
	c-4,0.1-7.2,3.4-7.1,7.5c0.1,2.6,2.2,4.7,4.8,4.6c0.5,0,0.9-0.1,1.3-0.3c0.2-0.1,0.4-0.2,0.5-0.4c0.6-0.6,0.9-1.5,0.7-2.3
	c0,0.4-0.1,0.8-0.4,1.2c-0.3,0.4-0.7,0.6-1.2,0.7c-1.2,0.2-2.4-0.7-2.5-2c-0.1-0.7,0.1-1.4,0.5-2c0.4-0.8,1.3-1.3,2.2-1.3
	c0.4,0,0.8,0.1,1.2,0.2c0.5,0.1,1,0.4,1.4,0.7c0.8,0.6,1.3,1.5,1.4,2.5c0.3,2.8-1.6,5.3-4.4,5.7c-3.8,0.5-7.4-2.3-7.8-6.1
	c-0.7-5.4,3.2-10.3,8.6-11c3.7-0.5,7.3,0.6,10.3,2.9c2.9,2.3,4.8,5.6,5.3,9.3c0.6,5.3-0.8,10.5-4.1,14.7c-3.3,4.2-8,6.9-13.3,7.5
	c-3.4,0.4-6.7,0.2-9.9-0.5c-4-0.9-7.9-2.7-11.2-5.4c-2.2-1.7-4-3.6-5.6-5.8c0.8,2.4,1.9,4.8,3.2,7.1C5,61.4,7,63.6,9.3,65.4
	C14,69.1,20,71,26,70.6c6.4-0.4,12.2-3.2,16.5-7.7c4.3-4.5,6.7-10.7,6.7-16.9C49.1,39.8,46.7,33.6,42.5,29.1z M104.5,65.4v-8.3H85.2
	V17.8H75.1v47.6H104.5z M153.5,57.1h-17.3V44.8h16.1v-8.3h-16.1V26.1h17.3v-8.3h-27.4v47.6h27.4V57.1z M216.7,65.4l-16.9-47.8h-12.3
	l-16.8,47.8h10.9l3.4-11.3h17.3l3.4,11.3H216.7z M187.6,45.6l3.4-11.1c0.2-0.5,0.4-1.3,0.7-2.5c0.3-1.2,0.7-2.4,1.1-3.7
	c0.4-1.3,0.7-2.4,0.9-3.3c0.2,0.9,0.5,1.9,0.9,3.1c0.4,1.2,0.7,2.4,1.1,3.5c0.4,1.2,0.6,2.1,0.9,2.8l3.4,11.1H187.6z M236,17.8v47.6
	h10.1V47.1h5.4l11.4,18.2H274l-14-20.7c1.6-0.7,3-1.6,4.4-2.8c1.3-1.1,2.4-2.5,3.3-4.1c0.8-1.6,1.2-3.5,1.2-5.7c0-3.2-0.7-5.9-2-8
	c-1.4-2.1-3.5-3.7-6.3-4.7c-2.8-1-6.4-1.6-10.7-1.6H236z M256.4,27.5c1.6,1,2.3,2.6,2.3,4.8c0,2.2-0.7,3.8-2.2,4.9
	c-1.4,1.1-3.8,1.7-7.2,1.7h-3.3V26.1h3.1C252.4,26.1,254.8,26.6,256.4,27.5z M335.5,17.8h-9.1v22.5c0,1.5,0.1,2.9,0.1,4.4
	c0.1,1.5,0.1,2.9,0.2,4.4c0.1,1.5,0.1,2.9,0.2,4.4h-0.2L306,17.8h-12.7v47.6h9V43c-0.1-1.5-0.1-3-0.2-4.5c-0.1-1.5-0.1-3-0.2-4.5
	c-0.1-1.5-0.1-3-0.2-4.5h0.3l20.7,36h12.8V17.8z M387.5,62.4h-22.6V41.9h21.4v-3h-21.4v-18h22.6v-3h-26v47.6h26V62.4z M437.6,65.4
	v-3.1H415V17.8h-3.4v47.6H437.6z M462.5,65.4V17.8h-3.4v47.6H462.5z M502.5,40.6l14.7-22.8h-3.7l-12.9,20.5l-12.8-20.5h-3.8
	l14.6,22.8l-16,24.7h3.7l14.3-22.3l14.1,22.3h3.8L502.5,40.6z M541.7,65.4V17.8h-3.4v47.6H541.7z M568.5,17.8v47.6h3.4V44.7h11.8
	l12.3,20.7h4l-13-21.6c2-0.6,3.8-1.4,5.3-2.5c1.5-1.1,2.7-2.5,3.6-4.2s1.3-3.8,1.3-6.2c0-3.2-0.6-5.8-1.9-7.6
	c-1.3-1.9-3.2-3.2-5.7-4.1c-2.5-0.8-5.7-1.2-9.4-1.2H568.5z M590.2,23c2.3,1.5,3.4,4.1,3.4,7.9c0,3.5-1.1,6.2-3.3,8
	c-2.2,1.9-5.2,2.8-9.1,2.8h-9.5V20.8h7.9C584.4,20.8,587.9,21.5,590.2,23z"/>
</svg>
