<?xml version="1.0" encoding="utf-8"?>
<!-- Generator: Adobe Illustrator 26.4.1, SVG Export Plug-In . SVG Version: 6.00 Build 0)  -->
<svg version="1.1" id="Layer_1" xmlns="http://www.w3.org/2000/svg" xmlns:xlink="http://www.w3.org/1999/xlink" x="0px" y="0px"
	 viewBox="0 0 600 70" style="enable-background:new 0 0 600 70;" xml:space="preserve">
<style type="text/css">
	.st0{fill:#FFFFFF;}
</style>
<path class="st0" d="M42.6,28.8C42.6,28.8,42.6,28.8,42.6,28.8C42.6,28.8,42.6,28.8,42.6,28.8C42.6,28.8,42.6,28.8,42.6,28.8z
	 M42.6,28.8c-7.5-7.6-12.3-18.2-13-29.1C17.6,3,8.1,11.5,2.9,22.1C0.7,26.7,0.1,31.2,0,33.7c0,0.4,0,0.8,0,1.3
	c0.2,6.6,2.8,12.7,7.6,17.2c4.7,4.5,11,6.9,17.5,6.8c4.4-0.1,8.5-1.9,11.6-5.1c3-3.2,4.7-7.4,4.6-11.8c-0.1-2.9-1.3-5.7-3.4-7.7
	c-2.1-2-4.9-3.1-7.9-3.1c-4,0.1-7.2,3.4-7.1,7.5c0.1,2.6,2.2,4.7,4.8,4.6c0.5,0,0.9-0.1,1.3-0.3c0.2-0.1,0.4-0.2,0.5-0.4
	c0.6-0.6,0.9-1.5,0.7-2.3c0,0.4-0.1,0.8-0.4,1.2c-0.3,0.4-0.7,0.6-1.2,0.7c-1.2,0.2-2.4-0.7-2.5-2c-0.1-0.7,0.1-1.4,0.5-2
	c0.4-0.8,1.3-1.3,2.2-1.3c0.4,0,0.8,0.1,1.2,0.2c0.5,0.1,1,0.4,1.4,0.7c0.8,0.6,1.3,1.5,1.4,2.5c0.3,2.8-1.6,5.3-4.4,5.7
	c-3.8,0.5-7.4-2.3-7.8-6.1c-0.7-5.4,3.2-10.3,8.6-11c3.7-0.5,7.3,0.6,10.3,2.9c2.9,2.3,4.8,5.6,5.3,9.3c0.6,5.3-0.8,10.5-4.1,14.7
	c-3.3,4.2-8,6.9-13.3,7.5c-3.4,0.4-6.7,0.2-9.9-0.5c-4-0.9-7.9-2.7-11.2-5.4c-2.2-1.7-4-3.6-5.6-5.8c0.8,2.4,1.9,4.8,3.2,7.1
	c1.5,2.5,3.5,4.7,5.8,6.5c4.7,3.7,10.7,5.5,16.6,5.1c6.4-0.4,12.2-3.2,16.5-7.7c4.3-4.5,6.7-10.7,6.7-16.9
	C49.3,39.5,46.8,33.3,42.6,28.8z M104.6,65.1v-8.3H85.3V17.5H75.3v47.6H104.6z M153.6,56.7h-17.3V44.5h16.1v-8.3h-16.1V25.8h17.3
	v-8.3h-27.4v47.6h27.4V56.7z M216.8,65.1L200,17.3h-12.3l-16.8,47.8h10.9l3.4-11.3h17.3l3.4,11.3H216.8z M187.7,45.3l3.4-11.1
	c0.2-0.5,0.4-1.3,0.7-2.5c0.3-1.2,0.7-2.4,1.1-3.7c0.4-1.3,0.7-2.4,0.9-3.3c0.2,0.9,0.5,1.9,0.9,3.1c0.4,1.2,0.7,2.4,1.1,3.5
	c0.4,1.2,0.6,2.1,0.9,2.8l3.4,11.1H187.7z M236.1,17.5v47.6h10.1V46.8h5.4L263,65.1h11.2l-14-20.7c1.6-0.7,3-1.6,4.4-2.8
	c1.3-1.1,2.4-2.5,3.3-4.1c0.8-1.6,1.2-3.5,1.2-5.7c0-3.2-0.7-5.9-2-8c-1.4-2.1-3.5-3.7-6.3-4.7c-2.8-1-6.4-1.6-10.7-1.6H236.1z
	 M256.5,27.2c1.6,1,2.3,2.6,2.3,4.8c0,2.2-0.7,3.8-2.2,4.9c-1.4,1.1-3.8,1.7-7.2,1.7h-3.3V25.8h3.1
	C252.5,25.8,254.9,26.3,256.5,27.2z M335.6,17.5h-9.1V40c0,1.5,0.1,2.9,0.1,4.4c0.1,1.5,0.1,2.9,0.2,4.4c0.1,1.5,0.1,2.9,0.2,4.4
	h-0.2l-20.7-35.6h-12.7v47.6h9V42.7c-0.1-1.5-0.1-3-0.2-4.5c-0.1-1.5-0.1-3-0.2-4.5c-0.1-1.5-0.1-3-0.2-4.5h0.3l20.7,36h12.8V17.5z
	 M387.6,62H365V41.6h21.4v-3H365v-18h22.6v-3h-26v47.6h26V62z M437.8,65.1V62h-22.6V17.5h-3.4v47.6H437.8z M462.6,65.1V17.5h-3.4
	v47.6H462.6z M502.7,40.3l14.7-22.8h-3.7L500.7,38l-12.8-20.5h-3.8l14.6,22.8l-16,24.7h3.7l14.3-22.3l14.1,22.3h3.8L502.7,40.3z
	 M541.8,65.1V17.5h-3.4v47.6H541.8z M568.6,17.5v47.6h3.4V44.4h11.8L596,65.1h4l-13-21.6c2-0.6,3.8-1.4,5.3-2.5
	c1.5-1.1,2.7-2.5,3.6-4.2s1.3-3.8,1.3-6.2c0-3.2-0.6-5.8-1.9-7.6c-1.3-1.9-3.2-3.2-5.7-4.1c-2.5-0.8-5.7-1.2-9.4-1.2H568.6z
	 M590.3,22.7c2.3,1.5,3.4,4.1,3.4,7.9c0,3.5-1.1,6.2-3.3,8c-2.2,1.9-5.2,2.8-9.1,2.8H572V20.5h7.9C584.5,20.5,588,21.2,590.3,22.7z"
	/>
</svg>
