<?xml version="1.0" standalone="no"?>
<!DOCTYPE svg PUBLIC "-//W3C//DTD SVG 20010904//EN"
 "http://www.w3.org/TR/2001/REC-SVG-20010904/DTD/svg10.dtd">
<svg version="1.0" xmlns="http://www.w3.org/2000/svg"
 width="512.000000pt" height="512.000000pt" viewBox="0 0 512.000000 512.000000"
 preserveAspectRatio="xMidYMid meet">
<metadata>
Created by potrace 1.11, written by Peter Selinger 2001-2013
</metadata>
<g transform="translate(0.000000,512.000000) scale(0.100000,-0.100000)"
fill="#000000" stroke="none">
<path d="M2537 4700 c-9 -11 -17 -23 -17 -26 0 -12 -94 -154 -102 -154 -4 0
-7 -3 -6 -7 4 -13 -53 -103 -65 -103 -6 0 -8 -3 -4 -6 7 -7 -89 -165 -107
-176 -6 -4 -8 -8 -3 -8 9 0 -41 -82 -57 -92 -6 -4 -8 -8 -3 -8 9 0 -41 -82
-57 -92 -6 -4 -8 -8 -3 -8 8 0 -41 -82 -55 -91 -5 -3 -9 -8 -7 -10 5 -9 -42
-89 -53 -89 -6 0 -8 -3 -5 -6 8 -9 -34 -84 -47 -84 -5 0 -6 -3 -3 -7 6 -5 -27
-70 -43 -83 -3 -3 -14 -24 -24 -47 -10 -23 -27 -51 -38 -63 -10 -11 -16 -20
-13 -20 4 0 -6 -22 -21 -50 -15 -27 -32 -50 -37 -50 -6 0 -7 -3 -4 -6 9 -9
-43 -104 -56 -104 -6 0 -7 -3 -4 -6 7 -7 -160 -335 -176 -345 -5 -3 -8 -10 -8
-15 2 -19 -21 -74 -30 -74 -6 0 -7 -4 -4 -10 3 -5 1 -10 -6 -10 -7 0 -10 -3
-6 -6 3 -4 -6 -30 -20 -58 -15 -28 -26 -54 -25 -58 1 -5 -2 -8 -8 -8 -6 0 -9
-3 -8 -7 5 -13 -33 -103 -43 -103 -5 0 -8 -3 -7 -7 3 -11 -22 -82 -40 -118 -9
-16 -15 -33 -14 -37 1 -5 -3 -8 -10 -8 -6 0 -9 -3 -5 -6 7 -7 -29 -112 -45
-132 -7 -8 -12 -17 -10 -19 1 -1 2 -4 1 -5 0 -2 -2 -12 -4 -23 -10 -53 -41
-145 -48 -145 -5 0 -7 -7 -4 -15 4 -8 2 -17 -4 -20 -5 -4 -8 -9 -5 -13 2 -4
-2 -43 -10 -87 -23 -139 -18 -266 21 -510 2 -11 4 -21 5 -22 2 -2 3 -6 5 -10
1 -5 5 -15 8 -23 20 -46 36 -103 31 -111 -3 -5 0 -9 6 -9 6 0 8 -4 5 -10 -3
-5 -1 -10 5 -10 6 0 8 -4 5 -10 -3 -5 -2 -10 2 -10 7 0 36 -62 36 -80 0 -3 6
-10 12 -16 6 -6 28 -41 50 -78 83 -142 235 -306 375 -404 36 -25 71 -52 78
-61 6 -8 12 -12 12 -7 0 8 94 -45 98 -56 2 -5 8 -6 13 -2 5 3 9 1 9 -4 0 -5 6
-9 13 -9 6 0 35 -10 62 -23 28 -13 55 -24 60 -25 28 -7 132 -37 145 -42 8 -4
18 -7 23 -8 4 -2 8 -4 10 -5 3 -3 26 -6 180 -19 91 -7 163 -7 255 0 153 13
176 16 180 19 1 1 5 3 10 5 4 1 14 4 22 8 13 5 117 35 145 42 6 1 33 12 60 25
28 13 56 23 63 23 6 0 12 4 12 9 0 5 4 7 9 4 5 -4 11 -3 13 2 4 11 98 64 98
56 0 -5 6 -1 13 7 6 9 41 36 77 61 140 98 292 262 375 404 22 37 44 72 50 78
6 6 12 13 12 16 0 18 29 80 36 80 4 0 5 4 2 10 -3 5 -1 10 5 10 6 0 8 5 5 10
-3 6 -1 10 5 10 6 0 9 4 6 9 -5 8 11 65 31 111 3 8 7 18 8 23 2 4 3 8 5 10 1
1 3 11 5 22 39 244 44 371 21 510 -8 44 -12 83 -10 87 3 4 0 9 -5 13 -6 3 -8
12 -4 20 3 8 1 15 -4 15 -7 0 -40 99 -46 140 -2 8 -6 21 -10 28 -5 6 -5 12 -1
12 3 0 1 6 -5 14 -16 19 -51 123 -44 130 4 3 1 6 -5 6 -7 0 -11 3 -10 8 1 4
-5 21 -14 37 -18 36 -43 107 -40 118 1 4 -2 7 -7 7 -10 0 -48 90 -43 103 1 4
-2 7 -8 7 -6 0 -9 3 -8 8 1 4 -10 30 -25 58 -14 28 -23 54 -20 58 4 3 1 6 -6
6 -7 0 -9 5 -6 10 3 6 2 10 -4 10 -9 0 -32 55 -30 74 0 5 -3 12 -8 15 -16 10
-183 338 -176 345 3 3 2 6 -4 6 -13 0 -65 95 -56 104 3 3 2 6 -4 6 -5 0 -22
23 -37 50 -15 28 -25 50 -21 50 3 0 -3 9 -13 20 -11 12 -28 40 -38 63 -10 23
-21 44 -24 47 -16 13 -49 78 -43 83 3 4 2 7 -3 7 -13 0 -55 75 -47 84 3 3 1 6
-5 6 -11 0 -58 80 -53 89 2 2 -2 7 -7 10 -14 9 -63 91 -55 91 5 0 3 4 -3 8
-16 10 -66 92 -57 92 5 0 3 4 -3 8 -16 10 -66 92 -57 92 5 0 3 4 -3 8 -18 11
-114 169 -107 176 4 3 2 6 -4 6 -12 0 -69 90 -65 103 1 4 -2 7 -6 7 -8 0 -102
142 -102 154 0 8 -33 46 -40 46 -3 0 -13 -9 -23 -20z m-547 -2732 c50 -26 87
-74 94 -122 20 -143 30 -187 58 -243 40 -82 119 -160 205 -206 64 -33 88 -39
261 -63 40 -6 100 -57 118 -101 41 -97 -12 -210 -113 -244 -43 -14 -156 -6
-253 17 -94 23 -255 104 -331 167 -189 157 -311 421 -297 641 5 77 38 128 102
157 55 25 102 24 156 -3z"/>
</g>
</svg>
