<svg version="1" xmlns="http://www.w3.org/2000/svg" width="834.667" height="834.667" viewBox="0 0 626.000000 626.000000"><path d="M308.3 22.2C283.4 61.5 261.1 98 240.2 134c-11.6 20-15.9 27.6-26.7 47-11.7 21-28.8 53.7-39.7 76-8.5 17.3-11.3 23.3-16.8 35.5-1.2 2.7-3.3 7.4-4.6 10.3-1.3 2.9-2.4 5.5-2.4 5.7 0 .3-.9 2.4-1.9 4.8-7.6 16.6-20.9 55-23.6 68.2-.3 1.1-.7 3.2-1.1 4.7-.3 1.5-.5 3-.5 3.3 0 .2-.4 1.9-1 3.7-1.5 5.3-2.3 14.5-2.3 26.3C119.5 496 165.9 566 237 596.3c11.8 5 30.1 10.5 40.5 12.3 17.1 2.8 45 3.8 57.5 2 17.9-2.6 19.6-2.9 33-6.8 62.6-18.3 111.6-67.2 130.6-130.3 2.7-8.8 2.9-9.5 5-21 3.4-18.7 3.9-46.4.9-57.5-.2-.8-.7-3.1-1-5-.3-1.9-1-4.9-1.5-6.5-.5-1.7-1.1-4.1-1.4-5.5-2-10.8-13.6-43.4-24.8-70-10-23.6-34.2-73.5-47-97-2-3.6-6.6-12.1-10.3-19-8.8-16.3-22-39.6-36.8-65.3-14.4-24.7-43.4-72.3-58.5-95.7-8.7-13.6-9.7-15-10.3-15-.3 0-2.4 2.8-4.6 6.2z"/></svg>