<svg version="1" xmlns="http://www.w3.org/2000/svg" width="834.667" height="834.667" viewBox="0 0 626.000000 626.000000"><path d="M330.4 5.3c-2.2 2.3-6.1 6.1-8.7 8.4-2.6 2.4-4.5 4.3-4.3 4.3.3 0-2.3 2.6-5.6 5.7-14.1 13.4-25.7 25-25.3 25.4.2.3-.9 1.3-2.4 2.3-1.5 1.1-3.6 3.2-4.7 4.7-1 1.5-2.2 2.5-2.6 2.3-.4-.3-.8 0-.8.5 0 1.2-1.6 3.2-6.7 8.8-1.8 1.9-3.3 3.9-3.3 4.4 0 .6-.4.7-1 .4-.5-.3-1-.1-1 .4 0 .6-3.7 5.7-8.3 11.3-4.6 5.7-9.2 11.6-10.3 13.3-2.2 3.5-4.2 6.1-6.6 8.7-1 1-1.8 2.2-1.8 2.6 0 .5-.9 1.7-2 2.7-1.1 1-1.7 2.1-1.5 2.5.3.4-.2 1.1-1.1 1.4-.9.4-1.4.9-1 1.3.3.3-.3 1.3-1.4 2-1.1.8-1.8 1.8-1.5 2.3.3.5 0 1.2-.7 1.7-1.4.9-7.8 9.7-7.8 10.8 0 .3-1.1 1.8-2.5 3.3-1.4 1.5-2.5 3.2-2.5 3.8 0 .6-.7 1.7-1.5 2.4s-1.2 1.6-.9 2.1c.3.5.1.9-.3.9-.8 0-4.1 4.8-4.6 6.7-.1.4-1.2 1.8-2.4 3.1-1.3 1.4-2 2.8-1.8 3.2.3.5.2 1-.2 1.2-1.2.5-6.4 8.8-5.6 8.8.5 0 .3.4-.3.8-1.5 1-6.6 9.2-5.7 9.2.4 0-.2.7-1.3 1.5-1 .8-1.4 1.5-.9 1.5.6 0 .6.3 0 .8-1.3.9-8.1 12.3-9 15.1-.3 1.2-1.1 2.1-1.7 2.1-.6 0-.8.3-.5.7.4.3 0 1.5-1 2.5-.9 1-1.3 1.8-.9 1.8s-.3 1.4-1.6 3.2c-3.2 4.5-5.7 10.1-5.1 11.3.4.5.2.7-.2.2-.5-.4-2.4 2.6-4.4 6.5-1.9 4-4 7.6-4.5 8-.6.4-.8.8-.3.8.4 0 0 1.1-.9 2.5s-1.2 2.5-.8 2.5c.5 0 .4.4-.2.8-1.7 1.1-5.5 9.1-4.9 10.2.3.6.2 1-.3 1-1 0-3.7 5.6-3.1 6.4.2.2-.3 1.2-1.2 2.2-1.5 1.8-7.6 15.2-9.4 20.4-.2.6-2.4 6-3.2 8-.3.8-.5 1.8-.5 2.2.1.5-.3.8-.8.8-.6 0-1 .6-1 1.4 0 .7-.8 3.1-1.7 5.2-1.7 4.1-2.3 6-2.5 8.1-.1.7-.5 1.3-.9 1.3-.7 0-2.3 5.7-1.8 6.2.1.2-.4 1.4-1.1 2.8-.8 1.4-1.5 2.7-1.6 3 0 .3-.3 1.2-.7 2-.7 2-2.8 8.8-3.1 10.3-.2.7-1.1 3.9-2.1 7.2-1.1 3.3-1.8 6.3-1.7 6.7.1.5-.3.8-.8.8-.6 0-1 .6-.8 1.2.1.7-.4 3.6-1.1 6.4-.7 2.9-1.4 6-1.6 7-.2 1.1-.4 1.9-.5 1.9-.4 0-3.1 13.8-4.5 24-.4 2.2-.8 5.1-1.1 6.5-1.7 8.7-1.7 40.4 0 48.5.3 1.7.8 4.6 1.1 6.5.2 1.9.6 4.4.8 5.5 1.2 5.3 2.1 11.1 1.9 11.7-.1.5.2.8.7.8.5 0 .8.6.8 1.2-.2 2 2.6 12.8 3.2 12.8.4 0 .7.8.8 1.7.2 3.2 5 15.3 5.8 14.5.4-.4.5 0 .4.8-.4 1.6 9.1 21.6 12.5 26.5 1.2 1.6 2.8 4.3 3.6 5.8.8 1.6 2.4 3.9 3.6 5.2 1.2 1.3 1.9 2.6 1.6 2.9-.3.3 0 .6.6.6.7 0 1.2.6 1.2 1.3 0 .7 2 3.4 4.3 6 2.4 2.6 4.2 4.7 4.1 4.7-.5 0 7.1 8.5 12.2 13.7 2.3 2.3 4.5 3.9 4.8 3.6.3-.4.6.1.6 1 0 1 .5 1.7 1.1 1.7.6 0 2 1.1 3.1 2.5s2.4 2.3 2.9 2c.5-.4.9.2.9 1.1 0 1 .2 1.5.5 1.2.3-.3 2 .8 3.6 2.3 1.7 1.6 3.6 2.6 4.3 2.2.6-.3.8-.3.4.2-.7.7 3.7 5 4.5 4.3.1-.2 1.8 1.2 3.7 2.9 3.2 3 5 3.8 7.3 3.4.5-.1.6.3.3.8-.4.5.3 1.2 1.4 1.6 1.1.3 2.6 1.2 3.2 1.9 1.8 1.7 21.1 11.1 22.5 11 .7-.1 1.1.1.9.5-.3.4 1.6 1.3 4.2 2 2.6.8 5.2 1.8 5.9 2.3.7.5 1.8.6 2.4.2.8-.5.9-.3.4.6-.6 1-.4 1.2.7.7.9-.3 2.4 0 3.4.7 1.1.7 2.6 1.3 3.4 1.4.8 0 4.7 1 8.5 2.1 7.4 2.2 11.1 3.1 16 3.6 3.1.4 7.9 1.2 13 2.3 1.7.3 12.2.6 23.5.7 18.3 0 25.8-.5 31.2-2.1.9-.3 3.2-.7 5-.9 5.8-.7 21.2-4.4 25.8-6.2.8-.3 2.4-.8 3.5-1 1.1-.2 2.2-.8 2.3-1.3.2-.6.8-.7 1.3-.4.6.3 1.6 0 2.4-.6.8-.7 1.5-1 1.5-.6s1.5-.1 3.3-1.1c1.7-.9 3.8-1.6 4.6-1.4.7.1 1-.2.6-.8-.3-.7 0-.8.9-.5.9.3 1.6.1 1.6-.6 0-.6.4-.9.9-.5.5.3 1.6-.2 2.4-1 .9-.8 2.2-1.5 2.9-1.5.7 0 2.4-.7 3.6-1.6 1.2-.8 2.2-1.2 2.2-.8 0 .4.8 0 1.8-.8.9-.8 5.4-3.6 9.9-6.2 4.4-2.6 9-5.6 10.2-6.7 1.2-1.1 2.1-1.7 2.1-1.4 0 .6 1.7-.7 5.5-4.3 1.4-1.3 2.5-1.9 2.5-1.5.1.4 1-.3 2-1.6 1.1-1.3 2-2 2-1.6 0 .4 1.9-1.2 4.3-3.5 2.3-2.4 6.1-5.8 8.5-7.8 2.3-1.9 4.2-4.1 4.2-5 0-.8.3-1.3.6-.9.4.3 2.2-1.3 4.1-3.6 2-2.3 4.4-4.8 5.4-5.5 1.1-.7 1.9-1.7 1.9-2.2 0-.9 2.6-4.3 5.8-7.6.7-.8 1-1.4.5-1.4-.4 0-.3-.4.3-.8 1.9-1.2 8.3-11 7.7-11.6-.4-.3-.1-.6.6-.6s.9-.5.6-1c-.3-.6-.2-1 .4-1 .9 0 7.7-11.4 8.3-14 .2-.8.5-1.7.8-2 .6-.6 5.5-10.1 5.6-10.9.1-.7 1.1-3.2 3.5-9 1-2.4 1.6-4.7 1.3-5.2-.3-.5-.1-.9.4-.9s1.2-1.2 1.5-2.8c.3-1.5 1.3-5.2 2.2-8.2.9-3 1.9-6.9 2.2-8.5.8-4.7 1.1-6 1.3-6 .1 0 .3-.9.4-2 .2-1.1.9-5.6 1.6-10 2.3-14.4 2.6-38.5.6-48-.3-1.1-.8-4.1-1.2-6.7-.3-2.7-1.1-4.8-1.6-4.8s-.7-.4-.4-.9c.6-.9-3.2-14.2-4.3-15.1-.3-.3-.7-1.6-.9-3-.1-1.4-.7-2.6-1.2-2.8-.5-.2-.6-1-.3-1.8s0-1.4-.6-1.4-1-.3-.8-.8c.4-1.5-6.7-16.1-7.6-15.5-.6.3-.7.1-.4-.4.7-1.1-2-7.4-3.6-8.4-.5-.3-.9-.9-.9-1.2 0-1.9-1.2-4.7-2-4.7-.5 0-.6-.5-.3-1 .3-.6.1-1-.4-1-.6 0-1.1-.6-1.1-1.3 0-.7-.8-2.2-1.7-3.3-1-1.1-1.9-2.6-2.1-3.4-.2-.8-.8-2-1.5-2.5-.7-.6-1.3-1.7-1.5-2.5-.2-.8-.9-2-1.6-2.5-.7-.6-1.3-1.4-1.3-1.8 0-.8-14.3-22.6-18.8-28.7-1.2-1.6-2.6-2.6-3-2.2-.5.4-.5.1-.1-.6.5-.8.1-2.1-1-3.2-1.1-1-3-3.6-4.3-5.9-1.4-2.2-2.8-3.8-3.3-3.5-.5.3-.7.1-.6-.3.4-1.4-11.8-18.3-12.6-17.5-.4.3-.4-.1 0-1.1.4-1.2.1-1.7-1.1-1.7-.9 0-1.4-.4-1.1-.8.2-.4-.4-1.9-1.5-3.2-1.1-1.4-4.2-5.8-7-9.8-2.7-3.9-5.4-7.2-6-7.2-.6 0-.8-.4-.4-.9.3-.6-.3-1.4-1.2-2-1-.6-1.4-1.1-1-1.1.4 0 .3-.6-.2-1.3-4.3-5.1-6.1-7.6-6.1-8.2 0-.5-5.5-8-7-9.5-1.4-1.4-11-15.9-11-16.7 0-.5-.9-1.5-1.9-2.3-1.1-.7-1.8-1.7-1.5-2.2.3-.4 0-.8-.5-.8-.6 0-1.1-.6-1.1-1.4 0-.7-1-2.4-2.2-3.8-1.3-1.4-2.4-3.1-2.6-3.9-.2-.8-.9-1.7-1.5-2.1-.7-.4-.7-.8-.2-.8.6 0 .1-.7-.9-1.5-1.1-.8-1.6-1.5-1.1-1.5.4 0 .1-.8-.7-1.8-.9-.9-2.5-3.5-3.7-5.7-1.2-2.2-3.3-5.8-4.6-8-1.4-2.2-3.2-5.6-4.2-7.5-.9-1.9-2.1-3.8-2.6-4.1-.5-.3-.8-1-.8-1.5.1-1.7-1-4.4-2-4.4-.5 0-.9-.7-.9-1.6 0-.9-.9-2.9-2.1-4.5-1.1-1.6-1.8-2.9-1.4-2.9.3 0-.2-1.1-1.1-2.5-.9-1.4-1.3-2.5-1-2.5.4 0-.1-1.2-1.1-2.6-.9-1.5-1.9-3.6-2-4.6-.2-1.1-.9-2.9-1.5-4.1-.7-1.2-1.3-2.4-1.3-2.7-.3-2.1-3.1-10-3.5-10-.5 0-.9-2.1-1.1-6.3 0-.9-.5-1.7-1-1.7-.6 0-.8-.4-.5-.9.4-.5.2-2.2-.4-3.6-.6-1.5-1.2-4.3-1.5-6.2-.2-2-.7-4.3-1-5.2-.6-2-1.4-11-2-21.5-.2-4.4-.6-10.2-.9-13-.5-4.9-1.3-15.2-2.1-28-.2-3.2-.7-6.2-1.2-6.6-.4-.5-2.6 1-4.9 3.3zM299.5 123c.4 1.7 1 2.8 1.4 2.6.4-.3.7.3.8 1.3.2 2.4 5.5 15.5 6.6 16.2.5.3.8.9.7 1.3-.2.8 4.1 10.2 7.1 15.6 1.1 1.9 3.3 6.3 5 9.7 1.7 3.5 3.5 6.3 4 6.3.4 0 .6.7.3 1.5-.4.8-.1 1.5.5 1.5s1.1.7 1.1 1.5.4 1.5.9 1.5 1.2 1.1 1.5 2.5c.4 1.4 1.1 2.3 1.6 2 .6-.3.7.1.4.9-.3.9-.2 1.6.4 1.6.5 0 1.5 1.3 2.2 3 .7 1.6 1.6 3 2.1 3s.9.7.9 1.5.5 1.5 1.1 1.5c.5 0 .7.5.4 1-.3.6.1 1.3.9 1.6.9.3 1.4 1 1.1 1.4-.3.5.2 1.5 1 2.3.8.9 1.5 2 1.5 2.6 0 .6.5 1.1 1 1.1.6 0 1 .7 1 1.6 0 .9.5 1.2 1.3.8.6-.4.9-.4.5.1-.8.9 2.2 6.5 3.4 6.5.4 0 .8.6.8 1.2 0 .7 1.4 2.9 3 4.8s3 4 3 4.5c0 .6 1.3 2.5 2.9 4.3 1.7 1.7 2.7 3.2 2.4 3.2-.3 0 1.1 2 3.1 4.4 2 2.4 3.6 4.9 3.6 5.5 0 .6.4 1.1.8 1.1s1.6 1.5 2.6 3.2c1.9 3.3 2.7 4.3 6.5 8.5 1 1.2 1.7 2.4 1.3 2.7-.3.3 0 .6.7.6s.9.4.6 1c-.3.5-.2 1 .3 1s2.7 2.7 4.9 6c2.2 3.2 4.4 5.6 4.8 5.2.5-.4.5-.2.2.4-.3.6.3 2 1.3 3.2 1.1 1.2 2 2.6 2 3.1s.9 1.6 2 2.4c1.1.8 1.8 1.6 1.5 1.9-.3.2 1 2.1 2.9 4.1 1.9 2 3.1 3.7 2.9 3.7-.5 0 4.4 6.8 5.6 8 .4.3 1.2 1.7 2 3.2.8 1.5 1.9 2.4 2.5 2.1.6-.3.8-.3.4.1-.3.4 2.5 5.2 6.3 10.6 3.8 5.5 6.9 10.4 6.9 10.9s.4 1.1.9 1.3c1.1.4 10.1 14.5 10.1 15.8 0 .6.7 1.3 1.5 1.6.8.4 1.3 1 1 1.4-.3.5.3 1.5 1.2 2.2 1 .7 2 2.2 2.1 3.3.2 1.1 1.2 3.1 2.2 4.5.9 1.4 2.1 3.5 2.4 4.7.4 1.3 1.2 2.3 1.7 2.3s.8.3.7.7c0 .5.9 3 2.2 5.8 6 13.2 7 15.6 7 16.8 0 .7.5 1.8 1.2 2.5s.9 1.2.5 1.2c-.3 0-.2 1.2.4 2.7.6 1.6 1.3 3.6 1.5 4.5.2 1 .7 2.8 1 4 .3 1.3.7 7.3.8 13.5.2 10.1-.2 15.9-2 27.8-.3 2.2-.7 4.8-.7 5.7-.1 1-.4 1.8-.7 1.8-.6 0-.9 1.4-1.3 6-.1 1.4-.4 2.7-.7 3-.5.5-3.9 9.5-4.3 11.5-.2.5-.6 1.6-1 2.2-.5.7-.6 1.7-.3 2.2.4.5.2 1.1-.2 1.3-.8.3-7.2 13.1-7.2 14.3 0 .3-.9 1.4-2 2.5-1.2 1.2-1.8 2.5-1.5 2.9.2.5-.2 1.2-1.1 1.5-.8.3-1.3 1-1 1.4.3.5-.3 1.6-1.2 2.5-.9.8-3 3.4-4.7 5.7-1.6 2.3-4.5 5.8-6.2 7.9-1.8 2.1-2.9 4.1-2.5 4.5.4.4.2.6-.4.4-1.2-.3-10 8.3-9.6 9.4.1.5-.2.7-.6.5-.5-.1-2.9 1.6-5.4 3.8-2.5 2.2-5.6 4.7-6.8 5.5-1.2.8-3.3 2.3-4.5 3.2-1.3 1-2.8 1.8-3.4 1.8-.6 0-1.6.9-2.3 1.9-.6 1-1.7 1.7-2.5 1.4-.7-.3-1.6.2-1.9 1.1-.3.9-1.2 1.6-2 1.6s-1.4.4-1.4 1c0 .5-.3.9-.7.8-1.4-.3-11.3 4.4-11.3 5.4 0 .5-.4.6-1 .3-.5-.3-1-.1-1 .5s-.4.9-.9.6c-.5-.3-2.6.2-4.7 1.1-2.2.9-4.3 1.8-4.9 1.9-.5.2-3.7 1-7 1.9-3.3.9-6.7 1.9-7.5 2.2-.8.3-2.5.7-3.6.9-1.2.1-3.9.5-6 .9-2.2.3-5.7.9-7.9 1.2-5.8.9-31.2.7-36.5-.2-2.5-.4-5.8-.9-7.5-1-1.6-.2-3-.4-3-.5 0-.1-.7-.3-1.5-.5s-2.6-.7-4-1c-6.1-1.5-7.6-1.8-9.2-1.7-1 0-1.8-.3-1.8-.7 0-.7-7.1-3.4-9.5-3.6-.5-.1-2-.6-3.2-1.3-1.2-.7-2.9-1.2-3.8-1.2-1 0-1.3-.5-.9-1.2.5-.7.2-.9-.9-.5-.9.3-1.8-.1-2.1-1-.4-.8-1.3-1.3-2.1-.9-.8.3-1.5.1-1.5-.5s-.4-.7-1-.4c-.5.3-1 .2-1-.3s-.8-1.2-1.7-1.6c-1-.3-3.1-1.4-4.8-2.5-1.6-1-3.4-1.6-3.9-1.3-.5.3-.6.1-.3-.5.6-1-4-3.8-5.6-3.4-.5.1-.6-.3-.2-.9.3-.5.2-1-.3-1-.4 0-1.8-.9-2.9-2-1.2-1.1-2.7-2.1-3.4-2.2-.7-.2-2.6-1.8-4.2-3.5-1.6-1.8-3.3-3-3.8-2.7-.5.3-.9-.1-.9-.8 0-.7-1.6-2.4-3.4-3.8-1.9-1.4-3.2-2.8-3-3.1.4-.8-4.3-4.9-5-4.3-.3.2-.4.1-.1-.2.2-.4-.8-2.1-2.3-3.9-4.7-5.6-5.8-7-10.1-13.3-2.2-3.3-4.1-6.5-4.1-7.1 0-.5-.8-1.5-1.7-2-1-.6-1.5-1.1-1-1.1.4 0-.3-1.7-1.6-3.8-1.3-2-2.2-4.3-2-5 .3-.6.1-1.2-.4-1.2-1.4 0-9.3-20.5-9.3-24.1 0-1-.4-1.9-.9-1.9-.4 0-.8-.8-.8-1.8.1-.9-.4-4.2-1.1-7.2-2.2-10-2.4-13.4-2.4-30 0-16.1.2-18 1.6-26.7.4-2.4.7-4.4.6-4.5-.1-.2.3-1.5.9-3 .6-1.5 1.3-4.9 1.7-7.5.3-2.7 1.5-7.7 2.6-11.3 1.1-3.5 2.2-7.5 2.5-8.9.2-1.3.8-3.2 1.4-4.3.5-1 .7-2.3.4-2.8-.3-.6-.1-1 .5-1s.9-.4.5-.9c-.3-.5-.1-1.2.4-1.5.7-.5 1.9-4.1 2.6-8.1.3-1.4 1.4-4.2 3.6-9.3 1.1-2.3 2-5 2.2-6 .2-.9 1.3-3.9 2.5-6.6 1.2-2.6 1.9-5.2 1.6-5.7-.3-.5-.1-.9.5-.9.5 0 1.3-1 1.6-2.3.4-1.2 1.8-4.6 3.1-7.5 1.3-2.9 2.4-5.9 2.4-6.7 0-.8.5-1.5 1-1.5.6 0 1-.5 1-1.1 0-.7 2-5.4 4.4-10.5 2.5-5.2 4.2-9.4 3.8-9.4-.4 0-.2-.4.4-.8 1.4-.9 9.9-18.3 9.7-20 0-.7.2-1.1.5-.8.7.8 9.5-15.8 8.9-16.7-.1-.2.6-1.1 1.6-2.1.9-1 1.5-2.2 1.2-2.7-.4-.5-.2-.9.3-.9.6 0 2.2-2.4 3.7-5.3 1.5-2.8 3.4-6 4.2-6.9.8-.9 1.2-2.2.7-2.9-.4-.7-.3-1 .4-.5 1 .6 2.8-3 2.4-4.7-.1-.4.2-.7.8-.7 1.1 0 4.1-5.5 3.5-6.4-.3-.3-.2-.4.2-.1.3.3 2-1.9 3.6-4.8 1.6-2.8 3.8-6.3 4.8-7.6 1-1.3 1.6-2.7 1.3-3.2-.3-.5-.1-.9.5-.9 1.2 0 4.6-6.1 4.2-7.5-.1-.5.1-.7.5-.3.4.4 2.9-2.7 5.5-6.9 2.7-4.2 5.4-8 6-8.4.6-.4.8-1.2.5-1.8-.4-.6-.3-1.1.2-1.1.8 0 6.4-7.6 6.1-8.2-.1-.2 1.5-2.1 3.5-4.2 2-2.2 3.4-4.2 3.1-4.4-.3-.3.4-1.2 1.5-1.9 1.1-.8 1.8-1.9 1.5-2.4-.4-.5-.1-.9.4-.9.6 0 1.1-.8 1.1-1.7 0-.9.3-1.3.6-1 .6.6 7.1-7.4 6.5-8.1-.4-.6 4.4-4 5.1-3.6.3.2.9 1.8 1.3 3.4z"/><path d="M231.9 313.5c-.1.5-.1 1.3 0 1.7 0 .5-.3.7-.8.5-.5-.1-1 .1-1 .5-.1.4-1.4 2-2.9 3.6-3.4 3.5-6.2 7.1-6.2 7.8 0 .2-1 1.6-2.2 2.9-1.3 1.4-3.9 5.5-5.8 9.2-1.9 3.8-3.9 7.1-4.4 7.4-.5.4-.6 1.1-.2 1.7.3.6.2 1.3-.3 1.7-1.5.9-4.1 6.6-3.5 7.6.3.5.1.9-.4.9s-1.3 1.5-1.7 3.2c-.8 3.6-.8 3.5-1.9 6-.4.9-.8 2.2-1 3-.1.7-.5 1.9-.9 2.5-.5.7-.6 1.3-.3 1.3s.1 1.1-.4 2.6c-.6 1.4-1.2 4.3-1.5 6.6-.3 2.2-.7 5.2-1 6.7-2.6 15.1-1.8 33.3 2.1 48.1.8 3 1.6 6.2 1.8 7 .6 2.3 4.5 12 5.9 14.4.6 1.2 1.2 2.3 1.2 2.6.4 2.2 5.1 10.3 6.1 10.7.8.3 1.2.9.9 1.3-.3.5.1 1.2.9 1.7.8.4 1.5 1.2 1.6 1.8.4 2 2.7 4.5 3.5 3.7.5-.4.5-.2.2.4-.7 1.3 5 8.4 14.1 17.3 8.1 8 12.6 11.3 13.7 10.3.5-.4.5-.2.2.4-.6 1 8.9 7.3 10 6.6.2-.2 1.1.5 1.9 1.5.7 1 1.4 1.3 1.4.8 0-.6.4-.4.9.3.4.7 1.4 1.4 2.2 1.6.8.1 3.2 1 5.3 1.9 6.7 2.9 12.7 4.7 13.7 4.2.5-.4.9-.2.9.3s.6.9 1.3 1c.6 0 2.6.4 4.2.7 4.7.9 22.7 1.3 26 .6 3-.6 3-.6-2.5-3.2-3-1.5-5.9-2.8-6.5-2.9-.5-.2-1.5-1-2.2-1.9-.6-.9-1.4-1.3-1.8-1-.3.4-1.8-.4-3.2-1.7-1.4-1.3-3.2-2.4-3.9-2.4-.7 0-1.4-.3-1.6-.8-.1-.4-2.9-2.6-6-5-3.2-2.3-8.6-6.9-12.1-10.2-3.5-3.3-6.7-5.7-7.1-5.5-.3.3-.4.2-.1-.1.2-.4-1-2.3-2.8-4.4-4.9-5.6-7-8.2-9.7-12.3-1.4-2-2.9-3.7-3.3-3.7-.5 0-.5-.5-.2-1 .3-.6.2-1-.3-1s-2-2.1-3.3-4.8c-1.3-2.6-2.6-4.9-2.9-5.2-1-.8-9-17.7-9-18.9 0-.6-.5-1.1-1.1-1.1-.5 0-.8-.4-.5-.9.3-.5-.5-3.8-1.8-7.4-1.3-3.5-2.7-8.6-3-11.2-.4-2.6-.9-5.7-1.2-6.8-.2-1.2-.6-4.5-.9-7.2-.2-2.8-.7-6.1-1-7.5-1.2-5.4-.6-32.9 1.1-47.5.3-2.2.6-6.1.8-8.7.2-2.5.6-5 .8-5.5.3-.4.6-2.6.7-4.8.1-2.2.3-5.4.5-7 .8-5.5 1.7-11 2.1-12.1.2-.6-.1-1.7-.6-2.5s-.9-1-1-.4z"/></svg>